<svg width="80" height="80" viewBox="0 0 80 80" fill="none" xmlns="http://www.w3.org/2000/svg">
<circle cx="40" cy="40" r="26.25" fill="#4762FF" fill-opacity="0.2"/>
<circle cx="40" cy="40" r="26.25" fill="#4762FF" fill-opacity="0.5"/>
<circle cx="40" cy="40" r="26.25" fill="#4762FF"/>
<path d="M38.0697 41.8333C39.5193 43.3039 41.2733 44.4393 43.2086 45.1597L45.8266 43.0764C45.9042 43.0229 45.9963 42.9943 46.0905 42.9943C46.1847 42.9943 46.2768 43.0229 46.3544 43.0764L51.2155 46.2083C51.4 46.3193 51.5563 46.4716 51.6718 46.6533C51.7874 46.835 51.8591 47.0411 51.8813 47.2553C51.9036 47.4695 51.8757 47.6859 51.7999 47.8875C51.7241 48.089 51.6025 48.2702 51.4447 48.4167L49.1669 50.6667C48.8407 50.989 48.4398 51.2255 47.9999 51.3552C47.56 51.4848 47.0949 51.5036 46.6461 51.4097C42.1684 50.4849 38.0413 48.3191 34.7363 45.1597C31.5047 41.9689 29.2685 37.9089 28.2988 33.4722C28.203 33.0303 28.223 32.5711 28.3569 32.1392C28.4907 31.7073 28.7338 31.3173 29.0627 31.0069L31.4238 28.7292C31.5699 28.579 31.7481 28.4639 31.945 28.3923C32.142 28.3208 32.3525 28.2948 32.5609 28.3161C32.7693 28.3375 32.9702 28.4058 33.1485 28.5158C33.3268 28.6258 33.4779 28.7747 33.5905 28.9514L36.8266 33.75C36.8824 33.8254 36.9126 33.9166 36.9126 34.0104C36.9126 34.1042 36.8824 34.1955 36.8266 34.2708L34.6947 36.8333C35.4347 38.7298 36.5875 40.4378 38.0697 41.8333Z" fill="white"/>
</svg>
